<?xml version="1.0" encoding="utf-8"?>
<!-- Generator: Adobe Illustrator 16.0.0, SVG Export Plug-In . SVG Version: 6.00 Build 0)  -->
<!DOCTYPE svg PUBLIC "-//W3C//DTD SVG 1.1//EN" "http://www.w3.org/Graphics/SVG/1.1/DTD/svg11.dtd">
<svg version="1.1" id="Layer_1" xmlns="http://www.w3.org/2000/svg" xmlns:xlink="http://www.w3.org/1999/xlink" x="0px" y="0px"
	 width="120px" height="30px" viewBox="0 0 26.641 6.24" enable-background="new 0 0 26.641 6.24" xml:space="preserve">
<path d="M4.428,5.951H3.405V3.824H1.317v2.127H0.29V0.832h1.027v2.201h2.088V0.832h1.023V5.951z"/>
<path d="M6.987,6.025C6.439,6.025,6,5.85,5.672,5.498S5.18,4.699,5.18,4.158V4.018c0-0.564,0.155-1.03,0.466-1.396
	c0.311-0.366,0.728-0.548,1.25-0.545c0.513,0,0.912,0.154,1.195,0.464s0.425,0.728,0.425,1.255v0.56H6.245L6.239,4.376
	c0.019,0.25,0.103,0.455,0.251,0.616c0.149,0.161,0.351,0.242,0.606,0.242c0.228,0,0.416-0.023,0.566-0.069
	c0.15-0.045,0.314-0.117,0.492-0.216l0.277,0.635C8.278,5.711,8.074,5.816,7.824,5.899C7.573,5.983,7.294,6.025,6.987,6.025z
	 M6.896,2.868c-0.19,0-0.34,0.072-0.45,0.218c-0.11,0.146-0.178,0.336-0.204,0.573l0.01,0.018h1.259V3.585
	c0-0.218-0.051-0.392-0.153-0.521C7.256,2.933,7.102,2.868,6.896,2.868z"/>
<path d="M10.194,5.951H9.167V0.467h1.027V5.951z"/>
<path d="M12.721,6.025c-0.548,0-0.987-0.176-1.315-0.527s-0.492-0.799-0.492-1.34V4.018c0-0.564,0.155-1.03,0.466-1.396
	c0.311-0.366,0.728-0.548,1.25-0.545c0.513,0,0.912,0.154,1.195,0.464c0.284,0.31,0.425,0.728,0.425,1.255v0.56h-2.271l-0.007,0.021
	c0.019,0.25,0.103,0.455,0.251,0.616c0.149,0.161,0.351,0.242,0.606,0.242c0.228,0,0.416-0.023,0.566-0.069
	c0.15-0.045,0.314-0.117,0.492-0.216l0.277,0.635c-0.154,0.127-0.357,0.232-0.608,0.315C13.307,5.983,13.028,6.025,12.721,6.025z
	 M12.63,2.868c-0.19,0-0.34,0.072-0.45,0.218c-0.11,0.146-0.178,0.336-0.204,0.573l0.01,0.018h1.259V3.585
	c0-0.218-0.051-0.392-0.153-0.521C12.99,2.933,12.836,2.868,12.63,2.868z"/>
<path d="M15.787,2.147l0.045,0.545c0.127-0.194,0.283-0.346,0.469-0.454c0.185-0.107,0.393-0.161,0.621-0.161
	c0.385,0,0.686,0.12,0.9,0.362c0.216,0.241,0.324,0.619,0.324,1.135v2.377h-1.031V3.572c0-0.256-0.051-0.438-0.154-0.544
	s-0.259-0.16-0.467-0.16c-0.137,0-0.258,0.027-0.366,0.083c-0.108,0.055-0.198,0.133-0.271,0.234v2.766H14.83V2.147H15.787z"/>
<path d="M18.754,4.081c0-0.601,0.13-1.084,0.389-1.452s0.624-0.552,1.096-0.552c0.189,0,0.36,0.041,0.513,0.123
	s0.286,0.199,0.401,0.352V0.467h1.029v5.484h-0.883l-0.084-0.464c-0.119,0.176-0.261,0.31-0.424,0.4
	c-0.162,0.092-0.35,0.138-0.561,0.138c-0.467,0-0.829-0.172-1.088-0.514s-0.389-0.795-0.389-1.357V4.081z M19.777,4.155
	c0,0.335,0.057,0.599,0.168,0.79c0.113,0.192,0.296,0.289,0.549,0.289c0.148,0,0.277-0.03,0.387-0.091
	c0.11-0.06,0.201-0.147,0.271-0.264V3.25c-0.07-0.12-0.16-0.214-0.27-0.281s-0.236-0.101-0.381-0.101
	c-0.252,0-0.435,0.111-0.551,0.336c-0.116,0.224-0.174,0.517-0.174,0.877V4.155z"/>
<path d="M22.818,4.014c0-0.566,0.158-1.031,0.475-1.394s0.754-0.543,1.314-0.543c0.562,0,1.004,0.181,1.322,0.541
	c0.318,0.361,0.479,0.826,0.479,1.396v0.074c0,0.572-0.16,1.038-0.477,1.397c-0.318,0.359-0.757,0.54-1.316,0.54
	c-0.562,0-1.004-0.181-1.32-0.54c-0.318-0.359-0.477-0.825-0.477-1.397V4.014z M23.842,4.086c0,0.347,0.061,0.624,0.182,0.834
	c0.123,0.209,0.319,0.314,0.592,0.314c0.264,0,0.458-0.105,0.581-0.316s0.185-0.488,0.185-0.832V4.013
	c0-0.337-0.062-0.612-0.186-0.825c-0.125-0.213-0.32-0.319-0.588-0.319c-0.265,0-0.459,0.106-0.582,0.321
	c-0.123,0.214-0.184,0.488-0.184,0.823V4.086z"/>
</svg>
